<?xml version="1.0" encoding="iso-8859-1"?>
<!-- Generator: Adobe Illustrator 19.0.1, SVG Export Plug-In . SVG Version: 6.00 Build 0)  -->
<svg version="1.1" xmlns="http://www.w3.org/2000/svg" xmlns:xlink="http://www.w3.org/1999/xlink" x="0px" y="0px"
	 viewBox="0 0 174.333 40.772" enable-background="new 0 0 174.333 40.772" xml:space="preserve">
<g id="Layer_1">
</g>
<g id="Guides">
</g>
<g id="Stave_Lines">

		<line opacity="0.4" fill="none" stroke="#000000" stroke-width="2" stroke-miterlimit="10" x1="0.333" y1="1.333" x2="174.333" y2="1.333"/>

		<line opacity="0.4" fill="none" stroke="#000000" stroke-width="2" stroke-miterlimit="10" x1="0.333" y1="10.333" x2="174.333" y2="10.333"/>

		<line opacity="0.4" fill="none" stroke="#000000" stroke-width="2" stroke-miterlimit="10" x1="83.333" y1="19.333" x2="174.333" y2="19.333"/>
	<path opacity="0.4" fill="none" stroke="#000000" stroke-width="2" stroke-miterlimit="10" d="M83.333,19.333"/>
	<path opacity="0.4" fill="none" stroke="#000000" stroke-width="2" stroke-miterlimit="10" d="M78.333,19.333"/>

		<line opacity="0.4" fill="none" stroke="#000000" stroke-width="2" stroke-miterlimit="10" x1="0.333" y1="19.333" x2="78.333" y2="19.333"/>

		<line opacity="0.4" fill="none" stroke="#000000" stroke-width="2" stroke-miterlimit="10" x1="136.333" y1="28.333" x2="174.333" y2="28.333"/>

		<line opacity="0.4" fill="none" stroke="#000000" stroke-width="2" stroke-miterlimit="10" x1="70.333" y1="28.333" x2="130.333" y2="28.333"/>

		<line opacity="0.4" fill="none" stroke="#000000" stroke-width="2" stroke-miterlimit="10" x1="28.333" y1="28.333" x2="64.333" y2="28.333"/>

		<line opacity="0.4" fill="none" stroke="#000000" stroke-width="2" stroke-miterlimit="10" x1="0.333" y1="28.333" x2="23.333" y2="28.333"/>

		<line opacity="0.4" fill="none" stroke="#000000" stroke-width="2" stroke-miterlimit="10" x1="18.333" y1="37.333" x2="174.333" y2="37.333"/>
	<path opacity="0.4" fill="none" stroke="#000000" stroke-width="2" stroke-miterlimit="10" d="M13.333,37.333"/>

		<line opacity="0.4" fill="none" stroke="#000000" stroke-width="2" stroke-miterlimit="10" x1="0.333" y1="37.333" x2="10.333" y2="37.333"/>
</g>
<g id="TExt">
	<g>
		<g>
			<path d="M24.201,24.393V28.7c0,1.243,0.498,1.864,1.492,1.864s1.492-0.621,1.492-1.864v-4.307h1.758v4.345
				c0,0.602-0.076,1.12-0.227,1.557c-0.146,0.391-0.398,0.742-0.758,1.056c-0.594,0.509-1.349,0.763-2.266,0.763
				c-0.912,0-1.664-0.254-2.258-0.763c-0.365-0.313-0.623-0.665-0.773-1.056c-0.146-0.35-0.219-0.868-0.219-1.557v-4.345H24.201z"/>
		</g>
		<g>
			<path d="M41.032,16.796l-1.453,0.764c-0.229-0.458-0.513-0.686-0.852-0.686c-0.162,0-0.299,0.053-0.414,0.157
				c-0.115,0.105-0.172,0.24-0.172,0.404c0,0.287,0.338,0.571,1.016,0.854c0.932,0.396,1.56,0.76,1.883,1.093
				c0.323,0.334,0.484,0.782,0.484,1.347c0,0.724-0.271,1.329-0.812,1.816c-0.526,0.462-1.162,0.692-1.906,0.692
				c-1.276,0-2.18-0.614-2.711-1.842l1.5-0.686c0.208,0.359,0.367,0.589,0.477,0.686c0.213,0.195,0.469,0.293,0.766,0.293
				c0.594,0,0.891-0.267,0.891-0.801c0-0.309-0.229-0.596-0.688-0.863c-0.177-0.087-0.354-0.172-0.531-0.254
				s-0.357-0.167-0.539-0.255c-0.51-0.246-0.87-0.493-1.078-0.739c-0.266-0.313-0.398-0.717-0.398-1.21
				c0-0.651,0.227-1.19,0.68-1.618c0.463-0.426,1.026-0.639,1.688-0.639C39.834,15.31,40.557,15.806,41.032,16.796z"/>
		</g>
		<g>
			<path d="M51.344,21.273c0-0.304,0.112-0.565,0.336-0.786s0.492-0.331,0.805-0.331c0.318,0,0.588,0.11,0.812,0.331
				c0.224,0.216,0.336,0.48,0.336,0.794c0,0.312-0.112,0.58-0.336,0.801c-0.219,0.221-0.487,0.331-0.805,0.331
				s-0.588-0.11-0.812-0.331S51.344,21.591,51.344,21.273z M53.367,24.393v7.504h-1.758v-7.504H53.367z"/>
		</g>
		<g>
			<path d="M70.301,25.163v2.135c-0.417-0.447-0.79-0.755-1.12-0.921c-0.324-0.172-0.706-0.258-1.144-0.258
				c-0.687,0-1.257,0.212-1.711,0.636s-0.681,0.954-0.681,1.593c0,0.651,0.219,1.188,0.657,1.606
				c0.443,0.419,1.008,0.628,1.695,0.628c0.438,0,0.825-0.083,1.16-0.25c0.325-0.161,0.706-0.476,1.144-0.942v2.121
				c-0.741,0.338-1.482,0.507-2.223,0.507c-1.222,0-2.244-0.348-3.066-1.043c-0.822-0.699-1.233-1.568-1.233-2.606
				c0-1.037,0.416-1.913,1.249-2.627c0.833-0.714,1.854-1.071,3.066-1.071C68.873,24.67,69.608,24.834,70.301,25.163z"/>
		</g>
		<g>
			<path d="M82.719,15.518h1.766v7.504h-1.766v-0.786c-0.724,0.668-1.502,1.002-2.336,1.002c-1.052,0-1.922-0.375-2.609-1.125
				c-0.682-0.766-1.023-1.721-1.023-2.866c0-1.125,0.341-2.062,1.023-2.812c0.682-0.75,1.537-1.125,2.562-1.125
				c0.885,0,1.68,0.359,2.383,1.078V15.518z M78.547,19.246c0,0.72,0.195,1.305,0.586,1.757c0.401,0.457,0.906,0.686,1.516,0.686
				c0.651,0,1.177-0.221,1.578-0.662c0.401-0.457,0.602-1.038,0.602-1.741c0-0.704-0.201-1.284-0.602-1.741
				c-0.401-0.447-0.922-0.67-1.562-0.67c-0.604,0-1.109,0.226-1.516,0.678C78.747,18.009,78.547,18.574,78.547,19.246z"/>
		</g>
		<g>
			<path d="M96.868,1.661v12.622H95.11V1.661H96.868z"/>
		</g>
		<g>
			<path d="M118.589,34.886v5.886h-1.758v-5.886h-0.75v-1.618h0.75v-2.751h1.758v2.751h1.367v1.618H118.589z"/>
		</g>
		<g>
			<path d="M136.333,29.333l-5.266-0.021c0.216,0.51,0.274,0.574,0.548,0.838c0.364,0.35,0.8,0.529,1.349,0.529
				c0.427,0,0.78-0.101,1.059-0.303c0.274-0.201,0.587-0.574,0.938-1.118l1.448,0.801c-0.224,0.378-0.46,0.702-0.709,0.971
				c-0.249,0.27-0.516,0.491-0.8,0.665c-0.285,0.174-0.592,0.301-0.922,0.382c-0.331,0.08-0.688,0.121-1.075,0.121
				c-1.107,0-1.996-0.353-2.667-1.058c-0.67-0.711-1.006-1.652-1.006-2.825c0-1.164,0.325-2.105,0.975-2.826
				c0.655-0.71,1.524-1.064,2.606-1.064c1.092,0,1.956,0.345,2.591,1.034c0.63,0.686,0.945,1.635,0.945,2.849L136.333,29.333z
				 M134.58,27.317c-0.239-0.906-0.815-1.359-1.729-1.359c-0.208,0-0.404,0.031-0.586,0.095c-0.183,0.062-0.35,0.153-0.499,0.271
				c-0.15,0.118-0.278,0.261-0.385,0.427c-0.107,0.166-0.188,0.355-0.244,0.566H134.58z"/>
		</g>
		<g>
			<path d="M149.136,27.836l-2.734-3.443h2.094l1.695,2.188l1.727-2.188h2.156l-2.812,3.443l3.258,4.061h-2.094l-2.234-2.805
				l-2.289,2.805h-2.148L149.136,27.836z"/>
		</g>
		<g>
			<path d="M164.255,34.886v5.886h-1.758v-5.886h-0.75v-1.618h0.75v-2.751h1.758v2.751h1.367v1.618H164.255z"/>
		</g>
		<g>
			<path d="M8.943,32.94h1.758v0.693c0.338-0.35,0.627-0.586,0.867-0.709c0.255-0.128,0.576-0.192,0.961-0.192
				c0.859,0,1.539,0.37,2.039,1.109c0.552-0.739,1.299-1.109,2.242-1.109c1.713,0,2.57,1.024,2.57,3.074v4.638h-1.766v-4.168
				c0-0.719-0.088-1.228-0.266-1.525c-0.182-0.303-0.482-0.455-0.898-0.455c-0.484,0-0.837,0.181-1.059,0.54
				s-0.332,0.938-0.332,1.733v3.875h-1.766v-4.145c0-1.336-0.391-2.004-1.172-2.004c-0.495,0-0.855,0.183-1.082,0.548
				c-0.227,0.364-0.34,0.939-0.34,1.726v3.875H8.943V32.94z"/>
		</g>
	</g>
	<g>
	</g>
	<g>
	</g>
	<g>
	</g>
	<g>
	</g>
	<g>
	</g>
	<g>
	</g>
	<g>
	</g>
	<g>
	</g>
	<g>
	</g>
	<g>
	</g>
	<g>
	</g>
	<g>
	</g>
	<g>
	</g>
	<g>
	</g>
	<g>
	</g>
</g>
</svg>
